Coordinates
version=1
nRows=29
nColumns=22
inDegrees=yes

Units are S.I. units (second, meters, Newtons, ...)
If the header above contains a line with 'inDegrees', this indicates whether rotational values are in degrees (yes) or radians (no).

endheader
time	pelvis_tilt	pelvis_list	pelvis_rotation	pelvis_tx	pelvis_ty	pelvis_tz	hip_flexion_r	hip_adduction_r	hip_rotation_r	knee_angle_r	ankle_angle_r	subtalar_angle_r	hip_flexion_l	hip_adduction_l	hip_rotation_l	knee_angle_l	ankle_angle_l	subtalar_angle_l	lumbar_extension	lumbar_bending	lumbar_rotation
      3.12000000	     -9.85033811	     -3.05854373	    -17.79570291	     -0.27723182	      0.95446410	     -0.08870715	      1.66292808	      8.63233298	      1.87062365	    -24.83235871	     23.24254094	     -2.05394381	     37.03199546	     -4.20031778	      2.67300754	    -20.79743670	      5.29665289	      8.00779739	     -0.91754790	      7.15196950	      7.50613755
      3.13000000	     -9.77259168	     -2.78298047	    -17.80107579	     -0.26864917	      0.95491448	     -0.08779451	      1.55117544	      8.19380264	      1.94225957	    -25.52476349	     22.78005747	     -1.18016820	     36.90138791	     -3.80007051	      2.66680601	    -21.44117720	      4.74575429	      7.40662781	     -0.80081590	      6.77641195	      7.26768730
      3.14000000	     -9.67171801	     -2.48467984	    -17.77043967	     -0.26000956	      0.95549271	     -0.08693061	      1.48234932	      7.71887913	      1.94575934	    -26.30873495	     22.28192299	     -0.33885289	     36.76505586	     -3.36664398	      2.60007081	    -22.12740399	      4.40320733	      6.83813026	     -0.70410740	      6.36290942	      7.01706996
      3.15000000	     -9.56983419	     -2.19469269	    -17.72288718	     -0.25133918	      0.95620995	     -0.08606838	      1.45899483	      7.25687219	      1.95385864	    -27.16167474	     21.64080714	      0.59509149	     36.60224475	     -2.93418261	      2.55756773	    -22.79882682	      4.28317666	      6.27142635	     -0.61561707	      5.94993418	      6.78202758
      3.16000000	     -9.46478276	     -1.89842956	    -17.65788555	     -0.24269456	      0.95701068	     -0.08525064	      1.51900473	      6.77955836	      1.89232725	    -28.14161842	     20.93185716	      1.53377801	     36.42503460	     -2.48862280	      2.50484676	    -23.46344579	      4.32730563	      5.74445293	     -0.54241912	      5.52561738	      6.56519389
      3.17000000	     -9.37958806	     -1.61387180	    -17.57968139	     -0.23406405	      0.95788014	     -0.08444318	      1.66154019	      6.32478433	      1.83274456	    -29.21435288	     20.08822426	      2.55132965	     36.22245819	     -2.04976978	      2.48561885	    -24.06406899	      4.53659540	      5.22903046	     -0.45545419	      5.11833889	      6.35390460
      3.18000000	     -9.31253271	     -1.31549370	    -17.50058267	     -0.22552472	      0.95876740	     -0.08369711	      1.93271100	      5.84638875	      1.69836208	    -30.44237135	     19.15012448	      3.52343909	     35.99819873	     -1.59355326	      2.49968589	    -24.58506245	      4.79125461	      4.75384259	     -0.36200975	      4.70167322	      6.19745085
      3.19000000	     -9.27915014	     -1.04376022	    -17.42759578	     -0.21706137	      0.95965836	     -0.08295085	      2.30948726	      5.40283255	      1.55973825	    -31.77673051	     18.06904178	      4.57948897	     35.75944193	     -1.17269267	      2.52100906	    -25.03138822	      5.14476529	      4.24714728	     -0.24984403	      4.32520174	      6.06056273
      3.20000000	     -9.27637056	     -0.80724294	    -17.37327740	     -0.20870077	      0.96053306	     -0.08222041	      2.79392052	      4.99373768	      1.40987550	    -33.22606606	     16.86542531	      5.69664205	     35.49970713	     -0.79985612	      2.54244878	    -25.39629298	      5.58001635	      3.71199378	     -0.12814272	      4.00623459	      5.94559953
      3.21000000	     -9.30598133	     -0.53869789	    -17.34051129	     -0.20046997	      0.96132383	     -0.08151878	      3.43575845	      4.53457060	      1.19033662	    -34.83938500	     15.57869539	      6.62586784	     35.24104372	     -0.41857304	      2.51662908	    -25.67497451	      6.00450474	      3.19952010	      0.02909166	      3.66497267	      5.87411006
      3.22000000	     -9.36510259	     -0.28871251	    -17.33851904	     -0.19239437	      0.96206536	     -0.08081668	      4.19749973	      4.08635124	      0.96640835	    -36.57358150	     14.17248632	      7.49353302	     34.96739481	     -0.07541622	      2.49250250	    -25.87021456	      6.43018840	      2.67126165	      0.19959272	      3.35840486	      5.85479481
      3.23000000	     -9.43944106	     -0.00541023	    -17.36715081	     -0.18446079	      0.96270523	     -0.08011956	      5.08953310	      3.58047397	      0.70873045	    -38.45029071	     12.72498933	      8.09916420	     34.69714157	      0.26927998	      2.37718791	    -26.01352320	      6.88278638	      2.20235657	      0.38954704	      3.02706805	      5.85146993
      3.24000000	     -9.53196721	      0.27834200	    -17.42218582	     -0.17669624	      0.96327016	     -0.07941457	      6.09433274	      3.06250548	      0.45773242	    -40.44102602	     11.21328143	      8.54743918	     34.42297223	      0.59375046	      2.24673031	    -26.10128420	      7.33888618	      1.74692626	      0.59021251	      2.70547761	      5.87520562
      3.25000000	     -9.59900141	      0.58331081	    -17.50329002	     -0.16908126	      0.96381910	     -0.07869726	      7.16786503	      2.49565061	      0.21207435	    -42.53118815	      9.65966911	      8.76711278	     34.10564047	      0.92671703	      2.08132771	    -26.13266034	      7.76349237	      1.39964179	      0.76036581	      2.35468277	      5.92874412
      3.26000000	     -9.72098671	      0.90735572	    -17.58569216	     -0.16164248	      0.96416068	     -0.07797271	      8.38782251	      1.92363222	     -0.00650959	    -44.71247886	      8.12151919	      8.75552827	     33.87020475	      1.25175140	      1.88440596	    -26.18194556	      8.27907846	      0.98683741	      0.99732524	      2.00652772	      5.92713311
      3.27000000	     -9.79868321	      1.24970230	    -17.68015208	     -0.15433716	      0.96451969	     -0.07722989	      9.63618065	      1.31400945	     -0.19682985	    -46.93920671	      6.55474935	      8.46862465	     33.57733184	      1.59765598	      1.68643396	    -26.18432475	      8.75159633	      0.68572610	      1.18491734	      1.62458241	      5.94052783
      3.28000000	     -9.82930723	      1.61556095	    -17.77685565	     -0.14714056	      0.96487538	     -0.07645923	     10.89866782	      0.66574118	     -0.35407372	    -49.18170671	      5.03337198	      7.98229687	     33.24274640	      1.96992033	      1.45554727	    -26.17042296	      9.22717554	      0.46866354	      1.32759363	      1.20105607	      5.91873349
      3.29000000	     -9.80821140	      2.02241852	    -17.87630213	     -0.14002975	      0.96522409	     -0.07569040	     12.16821886	     -0.03727922	     -0.45737005	    -51.41590764	      3.66094839	      7.44697563	     32.86195712	      2.38934688	      1.18129936	    -26.12867944	      9.69610801	      0.31051344	      1.42654615	      0.72197931	      5.86038140
      3.30000000	     -9.75796624	      2.39853581	    -17.96291895	     -0.13301040	      0.96559984	     -0.07492271	     13.42063851	     -0.71098863	     -0.54414264	    -53.56935994	      2.37484837	      6.71829680	     32.43685285	      2.80507667	      0.98680962	    -26.06295744	     10.15168329	      0.15865962	      1.48411491	      0.27069359	      5.79011364
      3.31000000	     -9.64834219	      2.79446483	    -18.04815355	     -0.12604095	      0.96600951	     -0.07416585	     14.63600154	     -1.42102971	     -0.58984489	    -55.62924779	      1.39344535	      6.09361356	     31.95127962	      3.25783041	      0.76428186	    -25.97015051	     10.59653881	      0.02760898	      1.48552852	     -0.21403319	      5.66985577
      3.32000000	     -9.47586336	      3.18991058	    -18.12021891	     -0.11911781	      0.96648987	     -0.07346031	     15.79191956	     -2.15802297	     -0.62231057	    -57.55306027	      0.77436982	      5.74440755	     31.39682014	      3.74262380	      0.54943478	    -25.84969397	     10.98747123	     -0.06679181	      1.41763656	     -0.70962082	      5.51911290
      3.33000000	     -9.31636034	      3.55133837	    -18.19535299	     -0.11225854	      0.96694956	     -0.07273879	     16.93959934	     -2.83703134	     -0.62513361	    -59.29173828	      0.47859187	      5.10380191	     30.83744952	      4.19486978	      0.35922253	    -25.70350721	     11.42833701	     -0.25522917	      1.36170076	     -1.14894035	      5.31093989
      3.34000000	     -9.10703849	      3.89015760	    -18.23954616	     -0.10543662	      0.96750677	     -0.07211682	     18.01204202	     -3.52555106	     -0.64823294	    -60.82882751	      0.59458224	      4.83890824	     30.20584623	      4.67473794	      0.25420334	    -25.51525106	     11.80964230	     -0.34342501	      1.24053361	     -1.56998491	      5.08791047
      3.35000000	     -8.89533763	      4.18879840	    -18.30622803	     -0.09869135	      0.96808902	     -0.07146454	     19.05603933	     -4.16286558	     -0.66000138	    -62.14681498	      0.98330893	      4.26434870	     29.56492421	      5.10338252	      0.10565509	    -25.32730788	     12.19544797	     -0.57899584	      1.10851300	     -1.93405752	      4.87125841
      3.36000000	     -8.69195825	      4.43577258	    -18.32949014	     -0.09202799	      0.96871016	     -0.07086906	     20.05350114	     -4.74134054	     -0.69499451	    -63.22103519	      1.73917551	      3.94182774	     28.91821127	      5.50811529	      0.04007820	    -25.12964014	     12.53464617	     -0.66874892	      0.96582289	     -2.23345912	      4.59586156
      3.37000000	     -8.47680757	      4.64860069	    -18.37129756	     -0.08543475	      0.96940621	     -0.07021793	     21.00600809	     -5.26882763	     -0.71804205	    -64.05322292	      2.54506964	      3.30107859	     28.23404654	      5.87149406	     -0.05028120	    -24.89689879	     12.89367404	     -0.88964639	      0.80255386	     -2.49453488	      4.33791562
      3.38000000	     -8.30711848	      4.79443794	    -18.36862383	     -0.07897266	      0.97009370	     -0.06960320	     21.93737883	     -5.69297593	     -0.76046861	    -64.63432263	      3.58246048	      2.87691468	     27.59525855	      6.17705636	     -0.06130706	    -24.69116197	     13.18324950	     -0.97144900	      0.66038774	     -2.66344664	      4.03083361
      3.39000000	     -8.13359392	      4.90326373	    -18.36978915	     -0.07255371	      0.97085791	     -0.06890583	     22.81288444	     -6.05578592	     -0.81192617	    -64.96413738	      4.54939092	      2.12932433	     26.91232694	      6.44167863	     -0.06013456	    -24.43077528	     13.51270708	     -1.14121697	      0.51034226	     -2.79803358	      3.74477847
      3.40000000	     -7.99850632	      4.94747469	    -18.32969615	     -0.06625724	      0.97159777	     -0.06822720	     23.65918838	     -6.31551639	     -0.88866726	    -65.05877020	      5.58915870	      1.49708754	     26.27787222	      6.64175509	     -0.02666638	    -24.21846152	     13.81049426	     -1.24631304	      0.37190979	     -2.84756995	      3.42098038
